<?xml version="1.0" encoding="UTF-8"?>
<svg version="1.1" xmlns="http://www.w3.org/2000/svg" width="300" height="300">
<path d="M0 0 C99 0 198 0 300 0 C300 99 300 198 300 300 C201 300 102 300 0 300 C0 201 0 102 0 0 Z " fill="#858897" transform="translate(0,0)"/>
<path d="M0 0 C1.98 0 3.96 0 6 0 C6 3.63 6 7.26 6 11 C6.66 10.67 7.32 10.34 8 10 C12.18771417 9.72081906 15.28371774 9.99119878 19 12 C21.07302244 13.86472832 21.92364843 15.32573043 22.23852539 18.10644531 C22.29550654 20.66063184 22.2610561 23.1962831 22.1875 25.75 C22.16719727 27.08224609 22.16719727 27.08224609 22.14648438 28.44140625 C22.11121309 30.62822578 22.06192752 32.81379966 22 35 C20.02 35 18.04 35 16 35 C16 29.39 16 23.78 16 18 C9.59628479 16.5527864 9.59628479 16.5527864 6 18 C6 23.61 6 29.22 6 35 C4.02 35 2.04 35 0 35 C-0.495 32.03 -0.495 32.03 -1 29 C-2.32 29 -3.64 29 -5 29 C-5.6814823 30.89179203 -5.6814823 30.89179203 -6 33 C-5.34 33.66 -4.68 34.32 -4 35 C-5.32 35 -6.64 35 -8 35 C-8 34.34 -8 33.68 -8 33 C-9.010625 33.495 -10.02125 33.99 -11.0625 34.5 C-14.85135107 36.10415065 -17.85939045 36.45170286 -22 36 C-25.4375 34.5 -25.4375 34.5 -28 33 C-28 32.34 -28 31.68 -28 31 C-28.99 31 -29.98 31 -31 31 C-34.73855392 25.50899892 -35.78576088 21.61248001 -35 15 C-33.92664907 9.92597742 -31.9213403 7.36114883 -28 4 C-22.90410985 0.76433524 -16.80404908 1.50849896 -11 2 C-7.4375 3.4375 -7.4375 3.4375 -5 5 C-2.76474965 5.68636625 -2.76474965 5.68636625 -1 6 C-0.67 4.02 -0.34 2.04 0 0 Z " fill="#828593" transform="translate(208,132)"/>
<path d="M0 0 C2.84625 -0.061875 5.6925 -0.12375 8.625 -0.1875 C9.51010254 -0.21481201 10.39520508 -0.24212402 11.30712891 -0.27026367 C16.30379078 -0.32255824 19.66397743 0.24495796 24 3 C26 5 26 5 26.1875 8.8125 C26.11835874 11.98147447 25.65810836 14.89748915 25 18 C25.33 18.33 25.66 18.66 26 19 C26.62919603 24.24330021 25.86979129 27.3936637 22.77832031 31.515625 C19.18639014 34.51383141 14.65694579 33.98650182 10.1875 33.9375 C6.825625 33.958125 3.46375 33.97875 0 34 C0 22.78 0 11.56 0 0 Z " fill="#1A1C20" transform="translate(38,134)"/>
<path d="M0 0 C14.46428571 -0.26785714 14.46428571 -0.26785714 18 2 C18 1.34 18 0.68 18 0 C27.00958466 -0.30031949 27.00958466 -0.30031949 30 2 C31.79164262 4.95046839 32.24165898 7.11723563 32.1953125 10.546875 C32.18886719 11.39121094 32.18242187 12.23554688 32.17578125 13.10546875 C32.15902344 13.97816406 32.14226562 14.85085937 32.125 15.75 C32.11597656 16.63816406 32.10695312 17.52632812 32.09765625 18.44140625 C32.07414577 20.62788058 32.04128499 22.81380094 32 25 C29.69 25 27.38 25 25 25 C24.505 15.595 24.505 15.595 24 6 C22.68 6.33 21.36 6.66 20 7 C19.67 12.94 19.34 18.88 19 25 C17.02 25 15.04 25 13 25 C13 19.06 13 13.12 13 7 C11.02 7 9.04 7 7 7 C7 13.27 7 19.54 7 26 C4.69 25.67 2.38 25.34 0 25 C0 16.75 0 8.5 0 0 Z " fill="#222429" transform="translate(134,142)"/>
<path d="M0 0 C3.08002555 1.27218447 4.59345012 2.55139324 6.8125 5 C8.63063306 9.59317825 8.23074239 14.12022573 8 19 C7.34 19 6.68 19 6 19 C6 20.32 6 21.64 6 23 C4.35 23.33 2.7 23.66 1 24 C1 24.66 1 25.32 1 26 C-8.6760591 26.86051909 -8.6760591 26.86051909 -12.5 23.75 C-16.49056805 19.36037515 -17.50635168 16.10774767 -17.390625 10.25390625 C-16.72027164 6.38596738 -14.81131791 4.68055893 -12 2 C-7.95101194 -0.69932537 -4.75067841 -0.53528771 0 0 Z " fill="#1B1D22" transform="translate(119,141)"/>
<path d="M0 0 C3.30966213 2.11450636 4.93015967 4.83087748 6.25 8.4375 C7.06537177 12.71202474 6.56024425 15.82850202 4.5625 19.75 C1.77417771 22.99048267 -0.3275136 25.0829898 -4.671875 25.71875 C-9.14686546 25.92062927 -12.16246154 25.352375 -15.75 22.4375 C-15.75 21.7775 -15.75 21.1175 -15.75 20.4375 C-16.41 20.4375 -17.07 20.4375 -17.75 20.4375 C-18.81682568 16.17019728 -19.64617019 11.78680305 -18.75 7.4375 C-13.98509507 -0.20100913 -8.69711171 -1.77895467 0 0 Z " fill="#17191C" transform="translate(255.75,141.5625)"/>
<path d="M0 0 C3.37377216 0.78960625 4.53881639 1.47520485 6.8125 4.0625 C8.45876524 8.13484034 8.69549362 11.66653974 8 16 C5.9293089 19.99347569 3.77872091 22.59907985 0 25 C-3.44654473 25.78485672 -6.55076288 25.77675734 -10 25 C-13.59052169 22.30171216 -15.59083773 19.2274868 -17 15 C-17.53832527 9.29375217 -16.61757835 6.4444534 -13 2 C-8.72927054 -0.84715297 -5.00601356 -0.37645222 0 0 Z " fill="#17191C" transform="translate(88,142)"/>
<path d="M0 0 C1.13566406 -0.00515625 2.27132812 -0.0103125 3.44140625 -0.015625 C6.4375 0.25 6.4375 0.25 9.4375 2.25 C9.625 4.875 9.625 4.875 9.4375 7.25 C6.13060033 8.10339346 3.25538843 8.22426776 -0.125 8.0625 C-3.8967637 7.98709403 -3.8967637 7.98709403 -7 10.25 C-7.515625 10.91 -8.03125 11.57 -8.5625 12.25 C-9.2225 12.25 -9.8825 12.25 -10.5625 12.25 C-10.27932074 13.85568666 -9.98562209 15.45952047 -9.6875 17.0625 C-9.52507812 17.95582031 -9.36265625 18.84914062 -9.1953125 19.76953125 C-8.65061551 22.47727846 -8.65061551 22.47727846 -6.5625 25.25 C-0.29430043 26.58762758 -0.29430043 26.58762758 5.4375 24.25 C6.4275 24.25 7.4175 24.25 8.4375 24.25 C8.7675 26.56 9.0975 28.87 9.4375 31.25 C4.52385548 33.65668303 1.02743818 34.85981144 -4.5625 34.25 C-8 32.75 -8 32.75 -10.5625 31.25 C-10.5625 30.59 -10.5625 29.93 -10.5625 29.25 C-11.5525 29.25 -12.5425 29.25 -13.5625 29.25 C-17.30105392 23.75899892 -18.34826088 19.86248001 -17.5625 13.25 C-16.48914907 8.17597742 -14.4838403 5.61114883 -10.5625 2.25 C-7.06931202 0.00938054 -4.10126272 -0.01866331 0 0 Z " fill="#181A1C" transform="translate(190.5625,133.75)"/>
<path d="M0 0 C1.98 0 3.96 0 6 0 C6 3.63 6 7.26 6 11 C6.66 10.67 7.32 10.34 8 10 C12.18771417 9.72081906 15.28371774 9.99119878 19 12 C21.07302244 13.86472832 21.92364843 15.32573043 22.23852539 18.10644531 C22.29550654 20.66063184 22.2610561 23.1962831 22.1875 25.75 C22.16719727 27.08224609 22.16719727 27.08224609 22.14648438 28.44140625 C22.11121309 30.62822578 22.06192752 32.81379966 22 35 C20.02 35 18.04 35 16 35 C16 29.39 16 23.78 16 18 C9.59628479 16.5527864 9.59628479 16.5527864 6 18 C6 23.61 6 29.22 6 35 C4.02 35 2.04 35 0 35 C0 23.45 0 11.9 0 0 Z " fill="#121417" transform="translate(208,132)"/>
<path d="M0 0 C0.99 0.495 0.99 0.495 2 1 C2 1.99 2 2.98 2 4 C2.99 4 3.98 4 5 4 C5 6.31 5 8.62 5 11 C4.34 11 3.68 11 3 11 C2.67 11.99 2.34 12.98 2 14 C2.66 14 3.32 14 4 14 C4 13.34 4 12.68 4 12 C8.95 12 13.9 12 19 12 C19 12.66 19 13.32 19 14 C19.66 14 20.32 14 21 14 C21 13.34 21 12.68 21 12 C21.66 12 22.32 12 23 12 C24.75832622 16.50571095 25.60401505 20.16787963 25 25 C22.5185524 29.2112534 22.5185524 29.2112534 20 31 C16.53237678 31.73033782 13.21147984 31.56925472 9.6875 31.375 C8.75615234 31.34792969 7.82480469 31.32085937 6.86523438 31.29296875 C4.57443128 31.2224825 2.28842437 31.12404246 0 31 C0 29.02 0 27.04 0 25 C0.33 25.99 0.66 26.98 1 28 C9.415 27.01 9.415 27.01 18 26 C18 23.69 18 21.38 18 19 C11.07 18.505 11.07 18.505 4 18 C3.34 19.32 2.68 20.64 2 22 C1.34 22 0.68 22 0 22 C0 14.74 0 7.48 0 0 Z " fill="#121417" transform="translate(39,135)"/>
<path d="M0 0 C0.33 0 0.66 0 1 0 C1.33 5.61 1.66 11.22 2 17 C6.54744972 18.51581657 11.18000171 18.44588967 15.9453125 18.71875 C19 19 19 19 20 20 C19.71269945 22.33944736 19.38063221 24.6739143 19 27 C13.19233704 28.5056904 8.0018137 29.21824777 2 29 C1.67 29.99 1.34 30.98 1 32 C7.6 32 14.2 32 21 32 C21 32.33 21 32.66 21 33 C10.605 33.495 10.605 33.495 0 34 C0 22.78 0 11.56 0 0 Z " fill="#232529" transform="translate(38,134)"/>
<path d="M0 0 C0.99 0 1.98 0 3 0 C3 0.66 3 1.32 3 2 C3.66 2 4.32 2 5 2 C5 1.34 5 0.68 5 0 C5.66 0.33 6.32 0.66 7 1 C7 6.61 7 12.22 7 18 C7.66 18 8.32 18 9 18 C7.58970126 20.82059747 5.92108419 20.98101714 3 22 C1.66909919 22.34291679 0.33613353 22.67807444 -1 23 C-1.02911321 19.9166866 -1.04683682 16.83340875 -1.0625 13.75 C-1.07087891 12.87730469 -1.07925781 12.00460938 -1.08789062 11.10546875 C-1.09111328 10.26113281 -1.09433594 9.41679687 -1.09765625 8.546875 C-1.10551147 7.38430176 -1.10551147 7.38430176 -1.11352539 6.19824219 C-1.00036998 4.00716402 -0.60552448 2.10362139 0 0 Z " fill="#828593" transform="translate(231,144)"/>
<path d="M0 0 C2.97 0.495 2.97 0.495 6 1 C6.33 1.99 6.66 2.98 7 4 C7.66 4.33 8.32 4.66 9 5 C8.67 5.33 8.34 5.66 8 6 C7.84417697 7.34015221 7.74955858 8.68758903 7.68359375 10.03515625 C7.64169922 10.84404297 7.59980469 11.65292969 7.55664062 12.48632812 C7.51732422 13.33646484 7.47800781 14.18660156 7.4375 15.0625 C7.39431641 15.91650391 7.35113281 16.77050781 7.30664062 17.65039062 C7.20023298 19.76672037 7.09958269 21.88333813 7 24 C5.02 24 3.04 24 1 24 C0.96261719 22.72382813 0.92523438 21.44765625 0.88671875 20.1328125 C0.82107209 18.46351162 0.7546243 16.79424211 0.6875 15.125 C0.66494141 14.28324219 0.64238281 13.44148437 0.61914062 12.57421875 C0.58369141 11.76855469 0.54824219 10.96289062 0.51171875 10.1328125 C0.48553467 9.38918457 0.45935059 8.64555664 0.43237305 7.87939453 C0.13270409 5.59266174 0.13270409 5.59266174 -3 4 C-2.01 2.68 -1.02 1.36 0 0 Z " fill="#14171B" transform="translate(146,143)"/>
<path d="M0 0 C2.01822917 0.06510417 4.03645833 0.13020833 6.0546875 0.1953125 C7.74354421 2.77826982 8.05760285 4.12388644 7.9296875 7.2578125 C7.0546875 10.1953125 7.0546875 10.1953125 5.3671875 12.1328125 C2.26992825 13.55587756 0.30002743 13.00664748 -2.9453125 12.1953125 C-4.11884439 8.67471682 -4.14677652 5.8888195 -3.9453125 2.1953125 C-1.9453125 0.1953125 -1.9453125 0.1953125 0 0 Z " fill="#6E717C" transform="translate(247.9453125,147.8046875)"/>
<path d="M0 0 C1.9375 1.625 1.9375 1.625 3 4 C2.87046154 7.17369216 2.51878767 9.22181849 0.75 11.875 C-1.67607284 13.43461825 -3.16995526 13.42450671 -6 13 C-7.8125 12 -7.8125 12 -9 10 C-9.42571807 7.14827208 -9.27943172 4.93403308 -9 2 C-5.52957297 -0.31361802 -4.08165827 -0.51020728 0 0 Z " fill="#7C7F8B" transform="translate(118,148)"/>
<path d="M0 0 C3.125 0.25 3.125 0.25 5 1.3125 C6.76773274 4.3569286 6.49323916 6.8131012 6.125 10.25 C5 12.25 5 12.25 3.125 13.25 C0.0625 13.25 0.0625 13.25 -2.875 12.25 C-4.84429694 9.25324379 -4.90555961 7.56781995 -4.5625 4 C-3.64166667 0.31666667 -3.64166667 0.31666667 0 0 Z " fill="#80828F" transform="translate(82.875,147.75)"/>
<path d="M0 0 C2.9375 0.8125 2.9375 0.8125 5 2 C5.33 2.99 5.66 3.98 6 5 C5.01 5 4.02 5 3 5 C2.67 5.66 2.34 6.32 2 7 C2 6.34 2 5.68 2 5 C1.01 5 0.02 5 -1 5 C-1 4.34 -1 3.68 -1 3 C-1.99 3 -2.98 3 -4 3 C-4 3.99 -4 4.98 -4 6 C-3.01 6.33 -2.02 6.66 -1 7 C-3.31 7.66 -5.62 8.32 -8 9 C-8 11.97 -8 14.94 -8 18 C-8.99 18.33 -9.98 18.66 -11 19 C-11 15.7 -11 12.4 -11 9 C-12.32 9 -13.64 9 -15 9 C-15.33 9.66 -15.66 10.32 -16 11 C-15.88721848 7.16542825 -14.62045075 5.25459606 -11.9375 2.6875 C-7.81922827 -0.60204354 -5.1652055 -0.66647813 0 0 Z " fill="#25282C" transform="translate(253,141)"/>
<path d="M0 0 C1.32 0 2.64 0 4 0 C5.26582219 3.86723631 5.1118765 7.73151262 5.0625 11.75 C5.05798828 12.44738281 5.05347656 13.14476562 5.04882812 13.86328125 C5.0371002 15.57555803 5.01916653 17.28779033 5 19 C3.34385343 19.38218767 1.67542976 19.71395102 0 20 C-1.5220959 18.4779041 -1.12959521 17.11789918 -1.1328125 15 C-1.13410156 14.195625 -1.13539063 13.39125 -1.13671875 12.5625 C-1.13285156 11.716875 -1.12898437 10.87125 -1.125 10 C-1.12886719 9.154375 -1.13273438 8.30875 -1.13671875 7.4375 C-1.13542969 6.633125 -1.13414062 5.82875 -1.1328125 5 C-1.13168457 4.2575 -1.13055664 3.515 -1.12939453 2.75 C-1 1 -1 1 0 0 Z " fill="#80828E" transform="translate(154,148)"/>
<path d="M0 0 C1.98 0 3.96 0 6 0 C5.67 4.29 5.34 8.58 5 13 C4.01 13.33 3.02 13.66 2 14 C2 20.6 2 27.2 2 34 C3.32 34.33 4.64 34.66 6 35 C4.02 35 2.04 35 0 35 C0 23.45 0 11.9 0 0 Z " fill="#1F2126" transform="translate(208,132)"/>
<path d="M0 0 C1.98 0 3.96 0 6 0 C6 5.94 6 11.88 6 18 C5.34 17.34 4.68 16.68 4 16 C2.68 16.33 1.36 16.66 0 17 C0 11.39 0 5.78 0 0 Z " fill="#7F828E" transform="translate(141,149)"/>
<path d="M0 0 C0.66 0.99 1.32 1.98 2 3 C1.67 3.99 1.34 4.98 1 6 C0.34 6 -0.32 6 -1 6 C-1 6.66 -1 7.32 -1 8 C0.65 7.34 2.3 6.68 4 6 C4.07347656 6.93972656 4.07347656 6.93972656 4.1484375 7.8984375 C4.22320312 8.71570313 4.29796875 9.53296875 4.375 10.375 C4.44460937 11.18710938 4.51421875 11.99921875 4.5859375 12.8359375 C4.82892588 15.20334191 4.82892588 15.20334191 7 17 C5.35 16.67 3.7 16.34 2 16 C2 17.65 2 19.3 2 21 C-1.97173936 17.23193958 -3.78910759 15.23545957 -4.3125 9.6875 C-3.94754969 5.38108632 -2.62610957 3.36470289 0 0 Z " fill="#212328" transform="translate(75,144)"/>
<path d="M0 0 C1.21236328 0.02707031 1.21236328 0.02707031 2.44921875 0.0546875 C3.37154297 0.08949219 3.37154297 0.08949219 4.3125 0.125 C4.3125 0.455 4.3125 0.785 4.3125 1.125 C3.03375 1.2075 1.755 1.29 0.4375 1.375 C-1.73988046 1.59395383 -1.73988046 1.59395383 -3.6875 2.125 C-5.37729836 4.30765621 -5.6875 5.39714651 -5.6875 8.125 C-6.3475 8.125 -7.0075 8.125 -7.6875 8.125 C-7.3575 11.095 -7.0275 14.065 -6.6875 17.125 C-7.0175 16.465 -7.3475 15.805 -7.6875 15.125 C-8.3475 15.125 -9.0075 15.125 -9.6875 15.125 C-9.6875 15.785 -9.6875 16.445 -9.6875 17.125 C-10.6775 17.125 -11.6675 17.125 -12.6875 17.125 C-13.4470682 9.52931796 -13.4470682 9.52931796 -11.6796875 6.26171875 C-8.20798849 2.07281245 -5.45086502 -0.15799609 0 0 Z " fill="#151619" transform="translate(114.6875,140.875)"/>
<path d="M0 0 C0.99 0.33 1.98 0.66 3 1 C3 3.97 3 6.94 3 10 C4.32 10.33 5.64 10.66 7 11 C7.33 11.99 7.66 12.98 8 14 C5.69 14 3.38 14 1 14 C1 13.34 1 12.68 1 12 C0.01 11.67 -0.98 11.34 -2 11 C-2.96891192 5.62694301 -2.96891192 5.62694301 -3 3 C-1.5625 1 -1.5625 1 0 0 Z " fill="#121417" transform="translate(240,149)"/>
<path d="M0 0 C1.4540625 0.0309375 1.4540625 0.0309375 2.9375 0.0625 C2.9375 0.7225 2.9375 1.3825 2.9375 2.0625 C3.9275 1.7325 4.9175 1.4025 5.9375 1.0625 C5.57245936 6.72692374 4.8820679 11.06953705 1.9375 16.0625 C1.2775 15.7325 0.6175 15.4025 -0.0625 15.0625 C0.2675 12.7525 0.5975 10.4425 0.9375 8.0625 C-0.0525 8.0625 -1.0425 8.0625 -2.0625 8.0625 C-2.7225 5.7525 -3.3825 3.4425 -4.0625 1.0625 C-3.0625 0.0625 -3.0625 0.0625 0 0 Z " fill="#7F8290" transform="translate(168.0625,143.9375)"/>
<path d="M0 0 C4 0 4 0 5.73828125 1.390625 C7.69156127 5.43022578 7.31480932 9.3300815 7.1875 13.75 C7.17396484 14.63816406 7.16042969 15.52632812 7.14648438 16.44140625 C7.11121309 18.62822578 7.06192752 20.81379966 7 23 C5.02 23 3.04 23 1 23 C1.66 22.67 2.32 22.34 3 22 C3 17.38 3 12.76 3 8 C3.33 8 3.66 8 4 8 C4 4.71841516 1.82343577 2.62118892 0 0 Z " fill="#1D1F25" transform="translate(223,144)"/>
<path d="M0 0 C0.66 0.33 1.32 0.66 2 1 C2.33 1.99 2.66 2.98 3 4 C3 2.68 3 1.36 3 0 C3.66 0 4.32 0 5 0 C5.33 2.64 5.66 5.28 6 8 C6.66 8 7.32 8 8 8 C6.58970126 10.82059747 4.92108419 10.98101714 2 12 C0.67323492 12.35858516 -0.65835921 12.7018576 -2 13 C-2.19294408 8.17639811 -1.75747614 4.50353262 0 0 Z " fill="#7F8290" transform="translate(232,154)"/>
<path d="M0 0 C3.63 0 7.26 0 11 0 C11.33 1.65 11.66 3.3 12 5 C11 6 11 6 8.49609375 6.09765625 C6.98208984 6.08025391 6.98208984 6.08025391 5.4375 6.0625 C4.42558594 6.05347656 3.41367187 6.04445312 2.37109375 6.03515625 C1.58863281 6.02355469 0.80617187 6.01195312 0 6 C0 4.02 0 2.04 0 0 Z " fill="#7D808C" transform="translate(45,154)"/>
<path d="M0 0 C3.63 0 7.26 0 11 0 C11.33 1.65 11.66 3.3 12 5 C11 6 11 6 8.49609375 6.09765625 C6.98208984 6.08025391 6.98208984 6.08025391 5.4375 6.0625 C4.42558594 6.05347656 3.41367187 6.04445312 2.37109375 6.03515625 C1.58863281 6.02355469 0.80617187 6.01195312 0 6 C0 4.02 0 2.04 0 0 Z " fill="#7F828D" transform="translate(45,141)"/>
<path d="M0 0 C1.32 0 2.64 0 4 0 C4 15.1 4 15.1 0.75 19.8125 C-1 21 -1 21 -4.1875 20.6875 C-5.115625 20.460625 -6.04375 20.23375 -7 20 C-6.236875 19.443125 -5.47375 18.88625 -4.6875 18.3125 C-1.48774911 15.55922598 0.74662165 13.34950832 1.21484375 9.0078125 C1.26838868 5.75942029 1.02981022 3.08943067 0 0 Z " fill="#797D88" transform="translate(260,147)"/>
<path d="M0 0 C1.32 0.33 2.64 0.66 4 1 C3.34 1 2.68 1 2 1 C2 1.99 2 2.98 2 4 C5.24983135 2.91215032 5.24983135 2.91215032 8 1 C9.84891946 0.76636119 11.70488031 0.58696365 13.5625 0.4375 C15.08037109 0.31181641 15.08037109 0.31181641 16.62890625 0.18359375 C17.41136719 0.12300781 18.19382813 0.06242188 19 0 C19 0.66 19 1.32 19 2 C16.03 2 13.06 2 10 2 C10.33 3.65 10.66 5.3 11 7 C10.20335937 6.75443359 10.20335937 6.75443359 9.390625 6.50390625 C6.46123236 5.88643623 3.74177064 5.90498075 0.75 5.9375 C-0.32765625 5.94652344 -1.4053125 5.95554688 -2.515625 5.96484375 C-3.74539062 5.98224609 -3.74539062 5.98224609 -5 6 C-5.33 5.34 -5.66 4.68 -6 4 C-5.34 3.67 -4.68 3.34 -4 3 C-4.33 2.34 -4.66 1.68 -5 1 C-3.35 1.33 -1.7 1.66 0 2 C0 1.34 0 0.68 0 0 Z " fill="#797D89" transform="translate(141,137)"/>
<path d="M0 0 C0.33 0.99 0.66 1.98 1 3 C1.66 3 2.32 3 3 3 C2.95875 3.7425 2.9175 4.485 2.875 5.25 C3.00398134 8.08758952 3.57051222 9.58773938 5 12 C4.01 12.495 4.01 12.495 3 13 C1.68 9.7 0.36 6.4 -1 3 C-2.98 3.99 -2.98 3.99 -5 5 C-5 4.34 -5 3.68 -5 3 C-6.32 3 -7.64 3 -9 3 C-9.103125 3.78375 -9.20625 4.5675 -9.3125 5.375 C-10 8 -10 8 -13 10 C-13 9.01 -13 8.02 -13 7 C-12.34 7 -11.68 7 -11 7 C-11.33 6.01 -11.66 5.02 -12 4 C-9.80449641 -1.48875898 -5.03527086 -0.38002044 0 0 Z " fill="#101315" transform="translate(120,142)"/>
<path d="M0 0 C0.99 0.33 1.98 0.66 3 1 C3 1.66 3 2.32 3 3 C5.97065509 2.65772428 5.97065509 2.65772428 9 2 C9.33 1.34 9.66 0.68 10 0 C12.97 0.495 12.97 0.495 16 1 C15.67 2.98 15.34 4.96 15 7 C6.2404908 7.44539877 6.2404908 7.44539877 2 4 C2 3.34 2 2.68 2 2 C1.34 2 0.68 2 0 2 C0 1.34 0 0.68 0 0 Z " fill="#15161B" transform="translate(238,160)"/>
<path d="M0 0 C0.33 0.99 0.66 1.98 1 3 C1.66 3 2.32 3 3 3 C3.33 2.01 3.66 1.02 4 0 C4.33 0.66 4.66 1.32 5 2 C4.01 3.485 4.01 3.485 3 5 C2.75812349 7.74518321 2.75812349 7.74518321 2.875 10.6875 C2.89304687 11.68136719 2.91109375 12.67523438 2.9296875 13.69921875 C2.95289062 14.45847656 2.97609375 15.21773437 3 16 C2.01 15.67 1.02 15.34 0 15 C0 13.35 0 11.7 0 10 C-0.66 9.67 -1.32 9.34 -2 9 C-2.99 12.465 -2.99 12.465 -4 16 C-5.22691067 13.54617866 -5.20175931 11.80015897 -5.25 9.0625 C-5.27578125 8.18722656 -5.3015625 7.31195313 -5.328125 6.41015625 C-4.94290357 3.5806131 -4.19305243 2.74867075 -2 1 C-2 1.99 -2 2.98 -2 4 C-1.34 4 -0.68 4 0 4 C0 2.68 0 1.36 0 0 Z " fill="#7E808E" transform="translate(100,144)"/>
<path d="M0 0 C1.17369141 -0.00386719 1.17369141 -0.00386719 2.37109375 -0.0078125 C4.5625 0.125 4.5625 0.125 7.5625 1.125 C7.5625 2.775 7.5625 4.425 7.5625 6.125 C5.93759046 6.15198189 4.31255367 6.17138757 2.6875 6.1875 C1.78257812 6.19910156 0.87765625 6.21070313 -0.0546875 6.22265625 C-2.4375 6.125 -2.4375 6.125 -4.4375 5.125 C-4.4375 4.135 -4.4375 3.145 -4.4375 2.125 C-5.0975 1.795 -5.7575 1.465 -6.4375 1.125 C-4.08479407 -0.05135297 -2.616748 -0.00859359 0 0 Z " fill="#151718" transform="translate(188.4375,133.875)"/>
<path d="M0 0 C1.65 0.33 3.3 0.66 5 1 C5 3.97 5 6.94 5 10 C4.01 10.33 3.02 10.66 2 11 C-0.5722047 9.71389765 -1.00974907 8.66606019 -2 6 C-1.66059264 3.69202999 -1.04244769 2.08489539 0 0 Z " fill="#888B9B" transform="translate(249,149)"/>
<path d="M0 0 C0.763125 0.20625 1.52625 0.4125 2.3125 0.625 C1.3225 1.12 1.3225 1.12 0.3125 1.625 C0.3125 2.285 0.3125 2.945 0.3125 3.625 C-0.3475 3.625 -1.0075 3.625 -1.6875 3.625 C-1.64625 4.90375 -1.605 6.1825 -1.5625 7.5 C-1.4921875 9.6796875 -1.4921875 9.6796875 -1.6875 11.625 C-2.3475 12.285 -3.0075 12.945 -3.6875 13.625 C-4.33517793 16.19561311 -4.33517793 16.19561311 -4.6875 18.625 C-5.0175 18.625 -5.3475 18.625 -5.6875 18.625 C-5.76821788 15.83275927 -5.82785408 13.04283434 -5.875 10.25 C-5.90013672 9.4559375 -5.92527344 8.661875 -5.95117188 7.84375 C-5.97754405 5.76913852 -5.84236462 3.69399135 -5.6875 1.625 C-2.6875 -0.375 -2.6875 -0.375 0 0 Z " fill="#6E717C" transform="translate(219.6875,148.375)"/>
<path d="M0 0 C0.33 0.66 0.66 1.32 1 2 C1.66 2 2.32 2 3 2 C4.60725635 5.21451269 4.05748185 8.43612536 4 12 C3.01 12.495 3.01 12.495 2 13 C2.66 13.33 3.32 13.66 4 14 C4 15.32 4 16.64 4 18 C2.68 18 1.36 18 0 18 C0 12.06 0 6.12 0 0 Z " fill="#111215" transform="translate(135,148)"/>
<path d="M0 0 C0.66 0 1.32 0 2 0 C2 0.99 2 1.98 2 3 C2.66 3 3.32 3 4 3 C2.94124926 6.40312738 1.99097846 9.01353231 0 12 C-1.32 11.67 -2.64 11.34 -4 11 C-3.67 8.36 -3.34 5.72 -3 3 C-2.34 3 -1.68 3 -1 3 C-0.67 2.01 -0.34 1.02 0 0 Z " fill="#141519" transform="translate(177,141)"/>
<path d="M0 0 C0.33 0.66 0.66 1.32 1 2 C1.66 2 2.32 2 3 2 C3.33 1.34 3.66 0.68 4 0 C4.33 2.97 4.66 5.94 5 9 C3.329375 9.4640625 3.329375 9.4640625 1.625 9.9375 C-1.7945155 10.82326483 -1.7945155 10.82326483 -4 12 C-3.28571429 3.42857143 -3.28571429 3.42857143 0 0 Z " fill="#7B7E8B" transform="translate(67,150)"/>
<path d="M0 0 C0.66 0.66 1.32 1.32 2 2 C1.625 4.125 1.625 4.125 1 6 C-1.83967231 6 -4.23735711 5.59732819 -7 5 C-6.01 3.68 -5.02 2.36 -4 1 C-4.99 0.67 -5.98 0.34 -7 0 C-7.33 0.66 -7.66 1.32 -8 2 C-10.475 1.01 -10.475 1.01 -13 0 C-13 -0.33 -13 -0.66 -13 -1 C-8.13520389 -2.52024878 -4.74303197 -1.47733783 0 0 Z " fill="#7E8190" transform="translate(127,138)"/>
<path d="M0 0 C0.99 0 1.98 0 3 0 C3.33 2.31 3.66 4.62 4 7 C-0.92618922 9.41282737 -4.39294195 10.52896774 -10 10 C-12.4375 9 -12.4375 9 -14 8 C-11.30179468 6.65089734 -8.92365725 7.02225901 -5.97265625 7.16015625 C-3.67550385 7.13434422 -3.67550385 7.13434422 -1 5 C0.32 5 1.64 5 3 5 C3 4.34 3 3.68 3 3 C2.01 2.67 1.02 2.34 0 2 C0 1.34 0 0.68 0 0 Z " fill="#2C2F36" transform="translate(196,158)"/>
<path d="M0 0 C1.9375 0.3125 1.9375 0.3125 4 1 C4.33 1.99 4.66 2.98 5 4 C7.64 4 10.28 4 13 4 C13 5.65 13 7.3 13 9 C12.67 8.01 12.34 7.02 12 6 C11.34 6 10.68 6 10 6 C10.185625 6.53625 10.37125 7.0725 10.5625 7.625 C11.11419324 10.61990614 10.60597444 13.03745829 10 16 C9.67 16 9.34 16 9 16 C8.91363281 15.37351563 8.82726562 14.74703125 8.73828125 14.1015625 C8.31410521 11.63433672 7.85582037 9.35459207 7 7 C4.55711372 5.68931667 4.55711372 5.68931667 2 5 C0.6875 2.375 0.6875 2.375 0 0 Z " fill="#111116" transform="translate(247,142)"/>
<path d="M0 0 C0.33 0 0.66 0 1 0 C1.33 4.62 1.66 9.24 2 14 C2.66 13.01 3.32 12.02 4 11 C4.66 11 5.32 11 6 11 C6 13.31 6 15.62 6 18 C4.34385343 18.38218767 2.67542976 18.71395102 1 19 C0 18 0 18 -0.11352539 16.23413086 C-0.10828857 15.48526611 -0.10305176 14.73640137 -0.09765625 13.96484375 C-0.09443359 13.15595703 -0.09121094 12.34707031 -0.08789062 11.51367188 C-0.07951172 10.66353516 -0.07113281 9.81339844 -0.0625 8.9375 C-0.05798828 8.08349609 -0.05347656 7.22949219 -0.04882812 6.34960938 C-0.03700373 4.23304337 -0.01906769 2.11651315 0 0 Z " fill="#6F717E" transform="translate(153,149)"/>
<path d="M0 0 C0.33 0 0.66 0 1 0 C2.13764351 4.26616316 3 7.56486311 3 12 C2.34 12 1.68 12 1 12 C-0.38232443 10.37373596 -1.71937515 8.7074998 -3 7 C-3.66 7.66 -4.32 8.32 -5 9 C-5.33 7.35 -5.66 5.7 -6 4 C-4.68 4.33 -3.36 4.66 -2 5 C-1.34 3.35 -0.68 1.7 0 0 Z " fill="#1D1F24" transform="translate(179,148)"/>
<path d="M0 0 C5.875 0.875 5.875 0.875 7 2 C7.04063832 3.66617115 7.042721 5.33388095 7 7 C2.74433453 8.16063604 -0.6835078 7.76173392 -5 7 C-5 6.67 -5 6.34 -5 6 C-1.535 5.505 -1.535 5.505 2 5 C2.33 3.68 2.66 2.36 3 1 C1.68 1.33 0.36 1.66 -1 2 C-0.67 1.34 -0.34 0.68 0 0 Z " fill="#232429" transform="translate(193,134)"/>
<path d="M0 0 C0.33 0 0.66 0 1 0 C1 2.64 1 5.28 1 8 C2.32 8.33 3.64 8.66 5 9 C4.01 9.495 4.01 9.495 3 10 C2.27840576 11.64363134 1.60648579 13.31050386 1 15 C0.34 14.34 -0.32 13.68 -1 13 C-1.33 13.99 -1.66 14.98 -2 16 C-2.66 16 -3.32 16 -4 16 C-3.625 13.0625 -3.625 13.0625 -3 10 C-2.34 9.67 -1.68 9.34 -1 9 C-0.53348793 6.87423218 -0.53348793 6.87423218 -0.375 4.4375 C-0.30023438 3.61121094 -0.22546875 2.78492188 -0.1484375 1.93359375 C-0.09945312 1.29550781 -0.05046875 0.65742188 0 0 Z " fill="#0D0E10" transform="translate(213,136)"/>
<path d="M0 0 C1.21236328 0.02707031 1.21236328 0.02707031 2.44921875 0.0546875 C3.37154297 0.08949219 3.37154297 0.08949219 4.3125 0.125 C4.3125 0.455 4.3125 0.785 4.3125 1.125 C3.075 1.186875 1.8375 1.24875 0.5625 1.3125 C-2.8893603 1.72647972 -3.48126802 1.90762034 -6 4.5625 C-6.556875 5.408125 -7.11375 6.25375 -7.6875 7.125 C-8.6775 7.785 -9.6675 8.445 -10.6875 9.125 C-11.26498803 11.08861864 -11.26498803 11.08861864 -11.375 13.25 C-11.478125 14.52875 -11.58125 15.8075 -11.6875 17.125 C-12.0175 17.125 -12.3475 17.125 -12.6875 17.125 C-13.4470682 9.52931796 -13.4470682 9.52931796 -11.6796875 6.26171875 C-8.20798849 2.07281245 -5.45086502 -0.15799609 0 0 Z " fill="#33353C" transform="translate(114.6875,140.875)"/>
<path d="M0 0 C0.66 0 1.32 0 2 0 C1.73958333 1.98567708 1.47916667 3.97135417 1.21875 5.95703125 C0.946767 8.15471706 0.946767 8.15471706 1 11 C1 12.32 1 13.64 1 15 C-0.32 15.33 -1.64 15.66 -3 16 C-3 15.34 -3 14.68 -3 14 C-2.34 14 -1.68 14 -1 14 C-1 13.34 -1 12.68 -1 12 C-3.97 11.505 -3.97 11.505 -7 11 C-3.25 9 -3.25 9 -1 9 C-0.67 6.03 -0.34 3.06 0 0 Z " fill="#25272A" transform="translate(89,151)"/>
<path d="M0 0 C0.33 0 0.66 0 1 0 C1 2.97 1 5.94 1 9 C1.99 9 2.98 9 4 9 C4 10.65 4 12.3 4 14 C2.35 14 0.7 14 -1 14 C-0.67 9.38 -0.34 4.76 0 0 Z " fill="#19191D" transform="translate(161,152)"/>
<path d="M0 0 C1.65 0.33 3.3 0.66 5 1 C5 1.99 5 2.98 5 4 C3.03533587 5.06775224 1.03144641 6.06553465 -1 7 C-1.66 6.67 -2.32 6.34 -3 6 C-3 4.68 -3 3.36 -3 2 C-2.01 2 -1.02 2 0 2 C0 1.34 0 0.68 0 0 Z " fill="#7F8391" transform="translate(107,137)"/>
<path d="M0 0 C4.29 0 8.58 0 13 0 C13 0.99 13 1.98 13 3 C11.20841511 3.02696365 9.41671527 3.04637917 7.625 3.0625 C6.62726562 3.07410156 5.62953125 3.08570313 4.6015625 3.09765625 C2 3 2 3 0 2 C0 1.34 0 0.68 0 0 Z " fill="#111216" transform="translate(46,135)"/>
<path d="M0 0 C1.28132812 0.10183594 2.56265625 0.20367187 3.8828125 0.30859375 C4.87023437 0.39238281 5.85765625 0.47617188 6.875 0.5625 C6.875 0.8925 6.875 1.2225 6.875 1.5625 C5.87919922 1.63597656 5.87919922 1.63597656 4.86328125 1.7109375 C0.15431889 2.10965256 -3.78177658 2.58830754 -8.125 4.5625 C-9.115 4.5625 -10.105 4.5625 -11.125 4.5625 C-8.51427059 -1.21840083 -6.07001816 -0.49663785 0 0 Z " fill="#747783" transform="translate(187.125,132.4375)"/>
<path d="M0 0 C2.44140066 2.54312569 2.99243527 3.93948214 3.4375 7.5 C2.9393296 11.48536323 2.10366328 12.57526306 -1 15 C-1.66 14.67 -2.32 14.34 -3 14 C-2.34 12.35 -1.68 10.7 -1 9 C-0.01 9 0.98 9 2 9 C1.67 8.2575 1.34 7.515 1 6.75 C0 4 0 4 0 0 Z " fill="#202227" transform="translate(61,149)"/>
<path d="M0 0 C-0.6875 2.875 -0.6875 2.875 -2 6 C-4.625 7.375 -4.625 7.375 -7 8 C-6.79375 7.21625 -6.5875 6.4325 -6.375 5.625 C-6.25125 4.75875 -6.1275 3.8925 -6 3 C-6.66 2.34 -7.32 1.68 -8 1 C-5.29120665 -0.35439668 -2.99066732 -0.06501451 0 0 Z " fill="#1A1C21" transform="translate(222,142)"/>
<path d="M0 0 C0.99 0.33 1.98 0.66 3 1 C3.33 1.99 3.66 2.98 4 4 C-1.36439644 6.68219822 -5.01006953 7.3152595 -11 7 C-11 6.67 -11 6.34 -11 6 C-9.39125 5.9071875 -9.39125 5.9071875 -7.75 5.8125 C-3.86468039 5.33854041 -3.86468039 5.33854041 -1.5625 2.4375 C-1.046875 1.633125 -0.53125 0.82875 0 0 Z " fill="#0E1013" transform="translate(195,159)"/>
<path d="M0 0 C0.66 0 1.32 0 2 0 C2.33 2.64 2.66 5.28 3 8 C3.66 8 4.32 8 5 8 C4.67 8.66 4.34 9.32 4 10 C1.9375 10.625 1.9375 10.625 0 11 C-1.05404945 7.01803543 -0.84098656 4.01804691 0 0 Z " fill="#797D88" transform="translate(235,154)"/>
<path d="M0 0 C0 2.33333333 0 4.66666667 0 7 C0.99 7.33 1.98 7.66 3 8 C2.34 8.66 1.68 9.32 1 10 C1 9.34 1 8.68 1 8 C0.34 8 -0.32 8 -1 8 C-1 7.01 -1 6.02 -1 5 C-1.66 5 -2.32 5 -3 5 C-3.33 6.32 -3.66 7.64 -4 9 C-4.66 8.67 -5.32 8.34 -6 8 C-4.73058503 4.08597051 -3.48832306 2.20927127 0 0 Z " fill="#2F3137" transform="translate(180,136)"/>
<path d="M0 0 C2 3 2 3 2 6 C3.98 6 5.96 6 8 6 C8 6.99 8 7.98 8 9 C5.36 9.33 2.72 9.66 0 10 C0 6.7 0 3.4 0 0 Z " fill="#696C76" transform="translate(214,133)"/>
<path d="M0 0 C0.99 0.33 1.98 0.66 3 1 C3 1.66 3 2.32 3 3 C4.32 2.67 5.64 2.34 7 2 C7.33 3.32 7.66 4.64 8 6 C8.78375 5.79375 9.5675 5.5875 10.375 5.375 C11.674375 5.189375 11.674375 5.189375 13 5 C13.66 5.66 14.32 6.32 15 7 C6.2404908 7.44539877 6.2404908 7.44539877 2 4 C2 3.34 2 2.68 2 2 C1.34 2 0.68 2 0 2 C0 1.34 0 0.68 0 0 Z " fill="#272830" transform="translate(238,160)"/>
<path d="M0 0 C0.33 0 0.66 0 1 0 C1.9765625 6.0546875 1.9765625 6.0546875 2 8 C1.34 8.66 0.68 9.32 0 10 C-0.66 10 -1.32 10 -2 10 C-2.33 10.66 -2.66 11.32 -3 12 C-3.66 10.35 -4.32 8.7 -5 7 C-4.34 7 -3.68 7 -3 7 C-3 6.34 -3 5.68 -3 5 C-2.34 5 -1.68 5 -1 5 C-0.67 3.35 -0.34 1.7 0 0 Z " fill="#212328" transform="translate(108,151)"/>
<path d="M0 0 C3.63 0 7.26 0 11 0 C11 0.99 11 1.98 11 3 C9.54257537 3.08096803 8.08387193 3.13917774 6.625 3.1875 C5.81289063 3.22230469 5.00078125 3.25710937 4.1640625 3.29296875 C3.44992188 3.19628906 2.73578125 3.09960938 2 3 C1.34 2.01 0.68 1.02 0 0 Z " fill="#858796" transform="translate(46,155)"/>
<path d="M0 0 C0.66 0.33 1.32 0.66 2 1 C2 3.97 2 6.94 2 10 C1.01 10.495 1.01 10.495 0 11 C-1.62651522 7.74696956 -1.11453156 4.60774398 -1 1 C-0.67 0.67 -0.34 0.34 0 0 Z " fill="#838592" transform="translate(252,149)"/>
<path d="M0 0 C2.97 0.495 2.97 0.495 6 1 C4.125 2.0625 4.125 2.0625 2 3 C1.34 2.67 0.68 2.34 0 2 C0 1.34 0 0.68 0 0 Z M-2 3 C2.95 3.99 2.95 3.99 8 5 C8 5.33 8 5.66 8 6 C4.7 6 1.4 6 -2 6 C-2 5.01 -2 4.02 -2 3 Z " fill="#6F737F" transform="translate(80,136)"/>
<path d="M0 0 C1.75 1.9375 1.75 1.9375 2 5.125 C1.9175 6.053125 1.835 6.98125 1.75 7.9375 C1.42 6.6175 1.09 5.2975 0.75 3.9375 C-0.425625 3.7209375 -0.425625 3.7209375 -1.625 3.5 C-4.25 2.9375 -4.25 2.9375 -6.25 1.9375 C-6.25 1.2775 -6.25 0.6175 -6.25 -0.0625 C-3.59972991 -1.10367754 -2.62311211 -1.23869183 0 0 Z " fill="#212427" transform="translate(62.25,137.0625)"/>
<path d="M0 0 C1.32 0.33 2.64 0.66 4 1 C2.125 6.75 2.125 6.75 1 9 C1.66 9 2.32 9 3 9 C3 9.66 3 10.32 3 11 C2.01 10.67 1.02 10.34 0 10 C0 6.7 0 3.4 0 0 Z " fill="#0E1011" transform="translate(209,133)"/>
<path d="M0 0 C2.40450178 2.40450178 2.29609139 3.08233942 2.3125 6.375 C2.32925781 7.14585937 2.34601563 7.91671875 2.36328125 8.7109375 C2 11 2 11 -1 15 C-0.67 10.05 -0.34 5.1 0 0 Z " fill="#202226" transform="translate(94,147)"/>
<path d="M0 0 C0.66 0 1.32 0 2 0 C2 0.66 2 1.32 2 2 C2.99 2.33 3.98 2.66 5 3 C5 3.66 5 4.32 5 5 C5.99 5.33 6.98 5.66 8 6 C7.01 6.495 7.01 6.495 6 7 C5.34 6.67 4.68 6.34 4 6 C4 6.66 4 7.32 4 8 C3.34 8 2.68 8 2 8 C2 7.34 2 6.68 2 6 C1.34 5.67 0.68 5.34 0 5 C0 3.35 0 1.7 0 0 Z " fill="#212427" transform="translate(56,141)"/>
<path d="M0 0 C-0.495 0.639375 -0.99 1.27875 -1.5 1.9375 C-3.09802862 3.70974339 -3.09802862 3.70974339 -3 5 C-4.65 5 -6.3 5 -8 5 C-8 3.68 -8 2.36 -8 1 C-5.29120665 -0.35439668 -2.99066732 -0.06501451 0 0 Z " fill="#858895" transform="translate(54,141)"/>
<path d="M0 0 C1.37562854 1.28965176 2.70766393 2.62689293 4 4 C4 4.66 4 5.32 4 6 C4.99 5.67 5.98 5.34 7 5 C7.33 6.32 7.66 7.64 8 9 C5.125 8.8125 5.125 8.8125 2 8 C0.32717969 5.11058309 0 3.3408643 0 0 Z " fill="#0E0F12" transform="translate(176,154)"/>
<path d="M0 0 C1.32 0.33 2.64 0.66 4 1 C4 1.66 4 2.32 4 3 C5.32 3.33 6.64 3.66 8 4 C6.68 4.33 5.36 4.66 4 5 C4.33 5.66 4.66 6.32 5 7 C3.35 6.67 1.7 6.34 0 6 C0 4.02 0 2.04 0 0 Z " fill="#747684" transform="translate(56,129)"/>
<path d="M0 0 C1.32 0 2.64 0 4 0 C6 2 6 2 6 6 C4.35 5.67 2.7 5.34 1 5 C0.67 3.35 0.34 1.7 0 0 Z " fill="#111216" transform="translate(105,159)"/>
<path d="M0 0 C1.32 0 2.64 0 4 0 C5.60725635 3.21451269 5.05748185 6.43612536 5 10 C3 7 3 7 3 4 C2.34 4 1.68 4 1 4 C0.67 2.68 0.34 1.36 0 0 Z " fill="#23252B" transform="translate(257,148)"/>
<path d="M0 0 C0.33 0 0.66 0 1 0 C1 1.65 1 3.3 1 5 C0.01 5 -0.98 5 -2 5 C-1.34 3.35 -0.68 1.7 0 0 Z M-6 4 C-4.02 4.99 -4.02 4.99 -2 6 C-2.99 6.99 -3.98 7.98 -5 9 C-5.33 7.35 -5.66 5.7 -6 4 Z " fill="#25262C" transform="translate(179,148)"/>
<path d="M0 0 C2 3 2 3 2 6 C3.32 5.67 4.64 5.34 6 5 C6 6.32 6 7.64 6 9 C5.34 9 4.68 9 4 9 C4 8.34 4 7.68 4 7 C3.01 7 2.02 7 1 7 C-1 4 -1 4 -0.625 1.8125 C-0.41875 1.214375 -0.2125 0.61625 0 0 Z " fill="#28292F" transform="translate(176,156)"/>
<path d="M0 0 C2.01822917 0.06510417 4.03645833 0.13020833 6.0546875 0.1953125 C6.3846875 1.1853125 6.7146875 2.1753125 7.0546875 3.1953125 C6.0646875 3.1953125 5.0746875 3.1953125 4.0546875 3.1953125 C4.0546875 2.5353125 4.0546875 1.8753125 4.0546875 1.1953125 C2.7346875 1.1953125 1.4146875 1.1953125 0.0546875 1.1953125 C0.0546875 1.8553125 0.0546875 2.5153125 0.0546875 3.1953125 C-1.2653125 2.8653125 -2.5853125 2.5353125 -3.9453125 2.1953125 C-1.9453125 0.1953125 -1.9453125 0.1953125 0 0 Z " fill="#0C1013" transform="translate(81.9453125,141.8046875)"/>
<path d="M0 0 C0.33 0.99 0.66 1.98 1 3 C3.64 3 6.28 3 9 3 C6.03312999 4.64826111 3.34373475 5.44271087 0 6 C0 4.02 0 2.04 0 0 Z " fill="#0D0E12" transform="translate(39,160)"/>
<path d="M0 0 C0.33 0.99 0.66 1.98 1 3 C0.01 4.485 0.01 4.485 -1 6 C-1 5.34 -1 4.68 -1 4 C-1.66 4 -2.32 4 -3 4 C-2.67 4.99 -2.34 5.98 -2 7 C-2.99 7.495 -2.99 7.495 -4 8 C-4 5.69 -4 3.38 -4 1 C-2.68 0.67 -1.36 0.34 0 0 Z " fill="#0C0E10" transform="translate(77,148)"/>
<path d="M0 0 C-0.33 0.99 -0.66 1.98 -1 3 C-4.63 2.67 -8.26 2.34 -12 2 C-12 1.67 -12 1.34 -12 1 C-7.915021 0.45533613 -4.1274515 0 0 0 Z " fill="#30343A" transform="translate(200,139)"/>
<path d="M0 0 C-0.66 1.32 -1.32 2.64 -2 4 C-4.31 3.34 -6.62 2.68 -9 2 C-5.5647952 -0.29013653 -4.014669 -0.17842973 0 0 Z " fill="#777B86" transform="translate(164,140)"/>
<path d="M0 0 C-0.33 0.66 -0.66 1.32 -1 2 C-0.34 2 0.32 2 1 2 C1 2.66 1 3.32 1 4 C-1.97 3.505 -1.97 3.505 -5 3 C-5.33 2.01 -5.66 1.02 -6 0 C-2.25 -1.125 -2.25 -1.125 0 0 Z " fill="#0D0E11" transform="translate(59,161)"/>
<path d="M0 0 C2 1 4 2 6 3 C6 3.66 6 4.32 6 5 C3.03 4.505 3.03 4.505 0 4 C0 2.68 0 1.36 0 0 Z " fill="#797C88" transform="translate(245,156)"/>
<path d="M0 0 C1.32 0.99 2.64 1.98 4 3 C3.67 3.99 3.34 4.98 3 6 C3 5.34 3 4.68 3 4 C2.34 4 1.68 4 1 4 C1 4.66 1 5.32 1 6 C0.34 6 -0.32 6 -1 6 C-0.67 4.02 -0.34 2.04 0 0 Z " fill="#0D0E10" transform="translate(104,152)"/>
<path d="M0 0 C2.64 0.66 5.28 1.32 8 2 C8 2.33 8 2.66 8 3 C5.36 3.33 2.72 3.66 0 4 C0 2.68 0 1.36 0 0 Z " fill="#0C0F0F" transform="translate(77,160)"/>
<path d="M0 0 C0.66 0.33 1.32 0.66 2 1 C1.67 2.32 1.34 3.64 1 5 C-0.65 4.67 -2.3 4.34 -4 4 C-2.68 2.68 -1.36 1.36 0 0 Z " fill="#0D1013" transform="translate(222,143)"/>
<path d="M0 0 C1.65 0.33 3.3 0.66 5 1 C4.34 2.32 3.68 3.64 3 5 C2.01 5 1.02 5 0 5 C-0.33 4.01 -0.66 3.02 -1 2 C-0.67 1.34 -0.34 0.68 0 0 Z " fill="#7E818F" transform="translate(248,136)"/>
</svg>
